<!-- Generated by IcoMoon.io -->
<svg version="1.1" xmlns="http://www.w3.org/2000/svg" width="32" height="32" viewBox="0 0 32 32">
<title>external</title>
<path d="M25.805 16.341c-0.714 0-1.293 0.579-1.293 1.293v9.805c0 1.089-0.886 1.976-1.976 1.976h-17.976c-1.089 0-1.976-0.886-1.976-1.976v-17.976c0-1.089 0.886-1.976 1.976-1.976h9.805c0.714 0 1.293-0.579 1.293-1.293s-0.579-1.293-1.293-1.293h-9.805c-2.515 0-4.561 2.046-4.561 4.561v17.976c0 2.515 2.046 4.561 4.561 4.561h17.976c2.515 0 4.561-2.046 4.561-4.561v-9.805c0-0.714-0.579-1.293-1.293-1.293z"></path>
<path d="M30.707 0h-9.805c-0.714 0-1.293 0.579-1.293 1.293s0.579 1.293 1.293 1.293h8.512v8.512c0 0.714 0.579 1.293 1.293 1.293s1.293-0.579 1.293-1.293v-9.805c0-0.714-0.579-1.293-1.293-1.293z"></path>
<path d="M31.621 0.379c-0.505-0.505-1.323-0.505-1.828 0l-17.976 17.976c-0.505 0.505-0.505 1.323 0 1.828 0.252 0.252 0.583 0.379 0.914 0.379s0.662-0.126 0.914-0.379l17.976-17.976c0.505-0.505 0.505-1.323 0-1.828z"></path>
</svg>
