<!-- Generated by IcoMoon.io -->
<svg version="1.1" xmlns="http://www.w3.org/2000/svg" width="14" height="32" viewBox="0 0 14 32">
<title>gulp</title>
<path d="M11.155 31.025l0.307-5.113 0.847-1.446s-1.928 0.789-5.156 0.789c-3.228 0-5.127-0.774-5.127-0.774l0.949 1.578 0.336 4.967c0 0.532 1.756 0.964 3.922 0.964s3.922-0.432 3.922-0.964zM10.187 7.149l0.644-2.546 3.566-3.753-0.94-0.801-3.776 3.998-0.748 3.041c-0.5-0.018-1.088-0.028-1.678-0.028-0.004 0-0.008 0-0.012 0h0.001c-3.977 0-7.2 0.453-7.2 1.012s3.224 1.012 7.2 1.012c3.977 0 7.2-0.453 7.2-1.012 0-0.412-1.748-0.766-4.258-0.924z"></path>
<path fill="#fff" d="M9.813 8.575s-0.139 0.031-0.55 0.033c-0.41 0.002-0.702-0.003-0.818-0.108-0.031-0.028-0.048-0.085-0.048-0.123 0-0.073 0.052-0.115 0.118-0.142l0.062 0.097c-0.027 0.009-0.042 0.020-0.043 0.032-0 0.055 0.42 0.093 0.741 0.089s0.709-0.030 0.71-0.085c0-0.016-0.029-0.032-0.080-0.044l0.062-0.097c0.083 0.026 0.156 0.076 0.156 0.162-0.001 0.147-0.188 0.169-0.309 0.186z"></path>
<path d="M14.391 0.858c0.090-0.104-0.046-0.368-0.304-0.592s-0.539-0.32-0.629-0.216c-0.090 0.104 0.046 0.368 0.304 0.592s0.539 0.32 0.629 0.216zM10.984 18.537c-0.085-0.813 1.779-1.991 1.301-2.029-1.029 0.059-1.542 1.206-2.060 2.408-0.19 0.44-0.839 2.319-1.265 2.088s0.552-1.776 0.826-2.693c-0.316 0.232-1.476 1.133-1.775 0.289-0.481 0.408-1.507 0.629-1.392-0.443-0.256 0.453-0.829 1.085-1.518 0.822-0.904-0.345 0.524-3.226 0.879-3.081s-0.072 0.802-0.184 1.057c-0.246 0.561-0.53 1.266-0.34 1.41 0.325 0.247 1.21-0.936 1.23-0.962 0.165-0.219 0.637-1.649 1.017-1.485s-0.948 2.053-0.451 2.428c0.1 0.076 0.51-0.047 0.759-0.316 0.161-0.174 0.106-0.561 0.643-1.843s1.017-2.878 1.385-2.756c0.369 0.122 0.065 0.941-0.067 1.246-0.621 1.433-1.694 3.802-1.188 3.622s0.77-0.19 1.265-0.77 0.473-1.535 0.803-1.515c0.33 0.020 0.275 0.327 0.195 0.56 0.325-0.372 1.541-1.155 1.835-0.38 0.348 0.919-1.74 2.246-1.219 2.178 0.507-0.066 1.329-0.587 1.68-1.060l0.966-8.686s-0.972 0.805-7.157 0.805c-6.185 0-7.056-0.788-7.056-0.788l0.823 7.928c0.437-1.241 1.473-3.751 3.107-3.666 0.743 0.038 1.736 1.47 0.886 1.518-0.36 0.020-0.396-0.714-0.822-0.822-0.307-0.078-0.736 0.172-1.012 0.443-0.552 0.54-1.738 2.67-1.581 3.732 0.2 1.354 1.868-0.471 2.151-1.012 0.199-0.382 0.333-1.512 0.768-1.393s-0.038 1.285-0.353 2.317c-0.354 1.158-0.54 2.38-0.984 2.24s0.279-1.636 0.253-1.898c-0.417 0.385-1.186 1.36-2.169 0.877l0.511 4.923s1.358 1.073 5.447 1.073c4.090 0 5.498-1.056 5.498-1.056l0.634-5.702c-0.519 0.505-2.161 1.403-2.267 0.391z"></path>
</svg>
