<!-- Generated by IcoMoon.io -->
<svg version="1.1" xmlns="http://www.w3.org/2000/svg" width="32" height="32" viewBox="0 0 32 32">
<title>joomla</title>
<path d="M31.711 4.411c0-2.308-1.871-4.179-4.179-4.179-2.107 0-3.849 1.56-4.136 3.588-0.027-0.014-0.042-0.022-0.042-0.022-3.417-1.541-6.296 1.189-6.296 1.189l-7.614 7.652 3.009 2.897 6.129-6.021c2.862-2.862 4.42-0.925 4.42-0.925 2.154 1.82 0.074 3.974 0.074 3.974l3.083 2.972c2.518-2.719 2.664-5.092 1.898-6.98 2.060-0.258 3.655-2.015 3.655-4.145z"></path>
<path d="M28.095 23.629c0.014-0.027 0.022-0.042 0.022-0.042 1.541-3.417-1.189-6.296-1.189-6.296l-7.652-7.615-2.897 3.009 6.021 6.129c2.862 2.862 0.925 4.42 0.925 4.42-1.82 2.154-3.974 0.074-3.974 0.074l-2.972 3.083c2.719 2.518 5.092 2.664 6.98 1.898 0.258 2.060 2.015 3.655 4.145 3.655 2.308 0 4.179-1.871 4.179-4.179 0-2.107-1.56-3.849-3.588-4.136z"></path>
<path d="M19.342 16.501l-6.129 6.021c-2.862 2.862-4.42 0.925-4.42 0.925-2.154-1.82-0.074-3.974-0.074-3.974l-3.083-2.972c-2.518 2.719-2.664 5.092-1.898 6.98-2.060 0.258-3.655 2.014-3.655 4.145 0 2.308 1.871 4.179 4.179 4.179 2.107 0 3.849-1.56 4.136-3.588 0.027 0.014 0.042 0.022 0.042 0.022 3.417 1.542 6.296-1.189 6.296-1.189l7.615-7.652-3.009-2.897z"></path>
<path d="M9.393 13.223c-2.862-2.862-0.925-4.42-0.925-4.42 1.82-2.154 3.975-0.074 3.975-0.074l2.972-3.083c-2.719-2.518-5.092-2.664-6.98-1.898-0.258-2.061-2.015-3.655-4.145-3.655-2.308 0-4.179 1.871-4.179 4.179 0 2.107 1.56 3.849 3.588 4.136-0.014 0.027-0.022 0.042-0.022 0.042-1.542 3.417 1.189 6.296 1.189 6.296l7.652 7.615 2.897-3.009-6.021-6.129z"></path>
</svg>
