<!-- Generated by IcoMoon.io -->
<svg version="1.1" xmlns="http://www.w3.org/2000/svg" width="1024" height="1024" viewBox="0 0 1024 1024">
<title></title>
<g id="icomoon-ignore">
</g>
<path d="M992.552 753.834l-4.512 11.707c-76.869 149.713-213.088 241.543-407.393 245.606-90.812 1.87-177.355-21.423-233.899-46.788-121.99-54.836-224.632-156.461-280.687-265.077-80.406-155.689-94.877-372.312 72.276-534.057 2.561 0-20.284 35.081-17.683 35.081l-4.593 14.959c-120.445 377.108 250.647 700.315 611.414 663.324 86.706-8.902 197.274-56.382 265.077-124.754z"></path>
<path d="M774.221 597.903c90.771 0.61 185.567-41.788 241.704-101.34-49.105 124.673-191.339 204.793-382.027 179.307-159.672-21.381-311.784-182.072-327.476-343.044-11.463-117.193 29.39-187.111 96.665-271.947-23.373 44.39-32.113 78.576-34.308 100.405-25.568 253.492 202.478 435.278 405.401 436.62z"></path>
<path d="M1006.82 283.068c-14.106 32.357-95.324 93.495-131.217 101.136-142.071 30.284-233.046-37.113-280.687-113.738-7.073-11.463-20.162-42.723-22.52-50.649-18.496-62.845-10-157.884 45.162-207.070-16.626 46.788-19.024 101.136-10.284 136.461 5.284 21.341 21.423 58.658 37.601 82.112 29.39 42.723 48.008 53.088 85.772 75.771 16.992 10.204 35.243 18.414 43.13 20.65 35.772 10.528 111.34 38.292 233.126-44.592z"></path>
</svg>
