<!-- Generated by IcoMoon.io -->
<svg version="1.1" xmlns="http://www.w3.org/2000/svg" width="33" height="32" viewBox="0 0 33 32">
<title>photoshop</title>
<path fill="#000" d="M1.367 1.37h30.079v29.259h-30.079v-29.259z"></path>
<path fill="#31c5f0" d="M1.367 1.37h30.079v29.259h-30.079v-29.259zM0 31.997h32.814v-31.994h-32.814v31.994zM22.122 13.129c-1.080 0-1.449 0.547-1.449 0.998 0 0.492 0.246 0.834 1.695 1.586 2.147 1.039 2.817 2.037 2.817 3.5 0 2.188-1.668 3.363-3.924 3.363-1.189 0-2.215-0.246-2.803-0.588-0.096-0.041-0.109-0.109-0.109-0.219v-2.010c0-0.137 0.068-0.178 0.164-0.109 0.861 0.561 1.846 0.807 2.748 0.807 1.080 0 1.531-0.451 1.531-1.066 0-0.492-0.314-0.93-1.695-1.641-1.942-0.93-2.748-1.873-2.748-3.445 0-1.764 1.381-3.227 3.774-3.227 1.176 0 1.996 0.178 2.447 0.383 0.109 0.068 0.137 0.178 0.137 0.273v1.873c0 0.109-0.068 0.178-0.205 0.137-0.602-0.383-1.49-0.615-2.379-0.615zM10.364 14.756c0.314 0.027 0.561 0.027 1.107 0.027 1.6 0 3.104-0.561 3.104-2.734 0-1.736-1.080-2.611-2.899-2.611-0.547 0-1.066 0.027-1.313 0.041v5.278zM7.93 7.496c0-0.096 0.191-0.164 0.301-0.164 0.875-0.041 2.174-0.068 3.527-0.068 3.787 0 5.264 2.078 5.264 4.731 0 3.473-2.516 4.963-5.606 4.963-0.52 0-0.697-0.027-1.066-0.027v5.25c0 0.109-0.041 0.164-0.164 0.164h-2.092c-0.109 0-0.164-0.041-0.164-0.164v-14.684z"></path>
</svg>
