<!-- Generated by IcoMoon.io -->
<svg version="1.1" xmlns="http://www.w3.org/2000/svg" width="1024" height="1024" viewBox="0 0 1024 1024">
<title></title>
<g id="icomoon-ignore">
</g>
<path d="M1016 512c0 278.348-225.652 504-504 504s-504-225.652-504-504c0-278.348 225.652-504 504-504s504 225.652 504 504z"></path>
<path fill="#fff" d="M783.152 288.224c-6.048-24.192-23.184-44.352-49.392-58.464-51.408-27.216-134.064-28.224-209.664-1.008-45.36 16.128-131.040 52.416-195.552 111.888-64.512 60.48-74.592 113.904-69.552 135.072 11.088 58.464 72.576 99.792 120.96 134.064 13.104 9.072 25.2 17.136 34.272 25.2-27.216 14.112-100.8 55.44-120.96 98.784-15.12 34.272-8.064 59.472-2.016 70.56 6.048 13.104 16.128 23.184 26.208 26.208s21.168 4.032 32.256 4.032c43.344 0 85.68-23.184 111.888-62.496s28.224-91.728 16.128-123.984c17.136-4.032 35.28-4.032 55.44-2.016 39.312 5.040 58.464 20.16 67.536 32.256 10.080 13.104 12.096 26.208 11.088 34.272-2.016 15.12-14.112 24.192-20.16 28.224-5.040 3.024-9.072 6.048-8.064 12.096 2.016 8.064 10.080 7.056 13.104 7.056 9.072-2.016 41.328-18.144 43.344-54.432 1.008-22.176-8.064-44.352-25.2-62.496-22.176-23.184-55.44-35.28-93.744-34.272-28.224 0-47.376 3.024-62.496 8.064 0 0-1.008-1.008-1.008-1.008-14.112-15.12-33.264-29.232-50.4-43.344-40.32-30.24-77.616-59.472-75.6-102.816 3.024-54.432 56.448-107.856 160.272-159.264 91.728-45.36 166.32-47.376 205.632-33.264 16.128 6.048 27.216 14.112 31.248 23.184 8.064 17.136 5.040 39.312-9.072 63.504-23.184 40.32-81.648 90.72-171.36 100.8-54.432 6.048-77.616-18.144-78.624-19.152-6.048-7.056-10.080-11.088-17.136-7.056-8.064 4.032-4.032 15.12-2.016 19.152 4.032 11.088 21.168 30.24 50.4 40.32 23.184 8.064 82.656 13.104 156.24-15.12 84.672-34.272 143.136-124.992 126-194.544zM435.392 717.632c-1.008 2.016-1.008 4.032-2.016 6.048s-2.016 4.032-2.016 6.048c-4.032 9.072-10.080 18.144-18.144 26.208-23.184 25.2-54.432 32.256-64.512 26.208-3.024-2.016-4.032-5.040-5.040-9.072-2.016-12.096 5.040-36.288 26.208-57.456 25.2-26.208 60.48-45.36 68.544-49.392 3.024 18.144 2.016 35.28-3.024 51.408z"></path>
</svg>
