<?xml version="1.0" standalone="no"?>
<!DOCTYPE svg PUBLIC "-//W3C//DTD SVG 20010904//EN"
 "http://www.w3.org/TR/2001/REC-SVG-20010904/DTD/svg10.dtd">
<svg version="1.0" xmlns="http://www.w3.org/2000/svg"
 width="71.000000pt" height="71.000000pt" viewBox="0 0 71.000000 71.000000"
 preserveAspectRatio="xMidYMid meet">
<metadata>
Created by potrace 1.11, written by Peter Selinger 2001-2013
</metadata>
<g transform="translate(0.000000,71.000000) scale(0.100000,-0.100000)"
fill="#000000" stroke="none">
<path d="M490 537 c0 -18 -5 -23 -27 -22 -34 0 -52 -40 -37 -82 8 -23 16 -28
47 -30 l37 -1 0 79 c0 46 -4 79 -10 79 -5 0 -10 -10 -10 -23z m0 -77 c0 -34
-21 -55 -38 -38 -28 28 -4 101 25 77 7 -7 13 -24 13 -39z"/>
<path d="M205 509 c-10 -15 3 -25 16 -12 14 14 39 6 39 -13 0 -8 -10 -14 -24
-14 -28 0 -49 -22 -44 -47 2 -14 13 -18 46 -19 l42 -2 0 47 c0 26 -5 52 -12
59 -15 15 -55 16 -63 1z m53 -66 c-4 -23 -48 -31 -48 -10 0 9 6 18 13 20 25
11 38 7 35 -10z"/>
<path d="M311 455 c1 -33 4 -46 6 -30 7 62 13 75 33 75 17 0 20 -7 20 -50 0
-27 5 -50 10 -50 15 0 12 96 -4 109 -7 6 -25 10 -40 9 -25 -2 -26 -4 -25 -63z"/>
<path d="M278 301 c-15 -21 -12 -141 3 -141 5 0 9 24 9 54 0 44 4 55 18 59 16
4 16 5 0 6 -10 0 -18 4 -18 7 0 4 8 13 18 20 16 12 16 13 0 14 -9 0 -23 -8
-30 -19z"/>
<path d="M340 218 c0 -32 4 -58 10 -58 6 0 10 20 10 44 0 41 19 74 33 59 4 -3
7 -1 7 5 0 6 -13 10 -30 10 -30 -1 -30 -1 -30 -60z"/>
<path d="M433 273 c-25 -10 -12 -22 17 -16 23 4 30 2 30 -11 0 -10 -9 -16 -25
-16 -29 0 -47 -27 -34 -52 6 -12 20 -17 44 -16 l35 1 0 53 c0 59 -20 76 -67
57z m47 -72 c0 -23 -25 -34 -39 -17 -7 9 -7 16 1 24 18 18 38 14 38 -7z"/>
</g>
</svg>
