<!-- Generated by IcoMoon.io -->
<svg version="1.1" xmlns="http://www.w3.org/2000/svg" width="32" height="32" viewBox="0 0 32 32">
<title>bootstrap</title>
<path fill="#000" d="M5.148 0h21.572c2.843 0 5.148 2.305 5.148 5.148v21.704c0 2.843-2.305 5.148-5.148 5.148h-21.572c-2.843 0-5.148-2.305-5.148-5.148v-21.704c0-2.843 2.305-5.148 5.148-5.148z"></path>
<path fill="#fff" d="M16.175 13.776c0.814 0 1.431-0.177 1.851-0.531s0.631-0.876 0.631-1.567c0-0.682-0.21-1.199-0.631-1.553-0.42-0.363-1.037-0.544-1.851-0.544h-2.857v4.196h2.857zM16.349 22.446c1.037 0 1.816-0.217 2.334-0.651 0.528-0.434 0.791-1.089 0.791-1.965 0-0.859-0.259-1.5-0.778-1.925-0.519-0.434-1.301-0.651-2.348-0.651h-3.032v5.191h3.032zM21.152 15.316c1.109 0.319 1.968 0.907 2.576 1.766s0.912 1.912 0.912 3.16c-0 1.912-0.653 3.337-1.959 4.275s-3.291 1.407-5.956 1.407h-8.572v-19.823h7.754c2.781 0 4.794 0.416 6.037 1.248 1.252 0.832 1.878 2.164 1.878 3.996-0 0.965-0.228 1.788-0.684 2.47-0.456 0.673-1.118 1.173-1.986 1.5z"></path>
</svg>
