<!-- Generated by IcoMoon.io -->
<svg version="1.1" xmlns="http://www.w3.org/2000/svg" width="32" height="32" viewBox="0 0 32 32">
<title>codepen-logo</title>
<path d="M31.648 10.992c0 0.019 0.006 0.032 0.016 0.032s0.016 0.010 0.016 0.032v9.891c0 0.019-0.006 0.032-0.016 0.032s-0.016 0.010-0.016 0.032v0.125c-0.019 0-0.032 0.019-0.032 0.061-0.019 0.019-0.032 0.051-0.032 0.093-0.019 0.019-0.032 0.042-0.032 0.061l-0.032 0.032c-0.019 0.019-0.032 0.042-0.032 0.061s-0.006 0.032-0.016 0.032c-0.010 0-0.016 0.010-0.016 0.032l-0.032 0.032c0 0.042-0.010 0.061-0.032 0.061l-0.032 0.032c-0.042 0.042-0.061 0.074-0.061 0.093-0.042 0-0.061 0.019-0.061 0.061-0.019 0-0.051 0.019-0.093 0.061-0.019 0.019-0.042 0.032-0.061 0.032v0.032l-14.339 9.552c-0.208 0.144-0.458 0.218-0.746 0.218-0.291 0-0.541-0.074-0.746-0.218l-14.342-9.552v-0.032l-0.061-0.032c-0.042-0.042-0.074-0.061-0.093-0.061 0-0.042-0.019-0.061-0.061-0.061 0-0.019-0.019-0.051-0.061-0.093l-0.032-0.032c-0.019 0-0.032-0.010-0.032-0.032 0-0.019-0.010-0.042-0.032-0.061 0-0.019-0.006-0.032-0.016-0.032s-0.016-0.010-0.016-0.032c0-0.019-0.010-0.032-0.032-0.032l-0.032-0.061c0-0.019-0.010-0.042-0.032-0.061 0-0.042-0.010-0.074-0.032-0.093 0-0.042-0.010-0.061-0.032-0.061v-0.125c0-0.019-0.006-0.032-0.016-0.032s-0.016-0.010-0.016-0.032v-9.894c0-0.019 0.006-0.032 0.016-0.032s0.016-0.010 0.016-0.032v-0.125c0.019 0 0.032-0.019 0.032-0.061 0.019-0.019 0.032-0.051 0.032-0.093 0.019-0.019 0.032-0.042 0.032-0.061l0.032-0.032c0.019-0.019 0.032-0.042 0.032-0.061s0.006-0.032 0.016-0.032 0.016-0.010 0.016-0.032l0.032-0.032c0-0.042 0.010-0.061 0.032-0.061l0.032-0.032c0.042-0.042 0.061-0.074 0.061-0.093 0.042 0 0.061-0.019 0.061-0.061 0.019 0 0.051-0.019 0.093-0.061 0.019-0.019 0.042-0.032 0.061-0.032v-0.032l14.342-9.552c0.499-0.291 0.995-0.291 1.494 0l14.342 9.552v0.032l0.061 0.032c0.042 0.042 0.074 0.061 0.093 0.061 0 0.042 0.019 0.061 0.061 0.061 0 0.019 0.019 0.051 0.061 0.093l0.032 0.032c0.019 0 0.032 0.010 0.032 0.032 0 0.019 0.010 0.042 0.032 0.061 0 0.019 0.006 0.032 0.016 0.032s0.016 0.010 0.016 0.032c0 0.019 0.010 0.032 0.032 0.032l0.032 0.061c0 0.019 0.010 0.042 0.032 0.061 0 0.042 0.010 0.074 0.032 0.093 0 0.042 0.010 0.061 0.032 0.061v0.128zM16 19.174l4.762-3.174-4.762-3.174-4.762 3.174 4.762 3.174zM14.662 10.461v-6.285l-10.579 7.034 4.73 3.174 5.85-3.923zM6.387 16l-3.36-2.24v4.48l3.36-2.24zM8.813 17.619l-4.73 3.174 10.579 7.030v-6.285l-5.85-3.92zM17.338 21.539v6.282l10.579-7.030-4.73-3.174-5.85 3.923zM25.613 16l3.36 2.24v-4.48l-3.36 2.24zM23.187 14.381l4.73-3.174-10.579-7.027v6.282l5.85 3.92z"></path>
</svg>
