<!-- Generated by IcoMoon.io -->
<svg version="1.1" xmlns="http://www.w3.org/2000/svg" width="32" height="32" viewBox="0 0 32 32">
<title>rwd</title>
<path d="M24.569 26.706h-3.488c-0.126 0-0.229-0.103-0.229-0.229v-0.849c0-0.126-0.103-0.229-0.229-0.229h-4.881c-0.126 0-0.229 0.103-0.229 0.229v0.849c0 0.126-0.103 0.229-0.229 0.229h-2.622c-0.126 0-0.229 0.103-0.229 0.229v0.982c0 0.126 0.103 0.229 0.229 0.229h11.906c0.126 0 0.229-0.103 0.229-0.229v-0.982c0-0.126-0.103-0.229-0.229-0.229z"></path>
<path d="M30.429 3.742h-24.89c-0.866 0-1.571 0.705-1.571 1.571 0 0 0 2.995 0 4.097 0 0.542-0.040 0.618 0.323 0.618 0.193 0 0.407 0 0.623 0 0.305 0 0.242-0.077 0.242-0.628 0-1.099 0-4.087 0-4.087 0-0.207 0.175-0.382 0.382-0.382h24.89c0.207 0 0.382 0.175 0.382 0.382v15.334h-17.745c0 0-0.625-0.001-0.625 0.808 0 0.479 0 1.438 0 1.918 0 0.808 0.646 0.808 0.646 0.808h17.343c0.866 0 1.571-0.704 1.571-1.57v-17.297c0-0.866-0.705-1.571-1.571-1.571zM17.984 22.824c-0.391 0-0.708-0.317-0.708-0.708s0.317-0.708 0.708-0.708c0.391 0 0.708 0.317 0.708 0.708s-0.317 0.708-0.708 0.708z"></path>
<path d="M10.018 11.431h-9.004c-0.559 0-1.014 0.455-1.014 1.014v14.799c0 0.559 0.455 1.014 1.014 1.014h9.004c0.559 0 1.014-0.455 1.014-1.014v-14.799c0-0.559-0.455-1.014-1.014-1.014zM4.405 12.465h2.221c0.106 0 0.192 0.086 0.192 0.192s-0.086 0.192-0.192 0.192h-2.221c-0.106 0-0.192-0.086-0.192-0.192s0.086-0.192 0.192-0.192zM5.502 27.546c-0.29 0-0.525-0.235-0.525-0.525s0.235-0.525 0.525-0.525 0.525 0.235 0.525 0.525-0.235 0.525-0.525 0.525zM10.161 26.004c0 0.135-0.108 0.246-0.241 0.246h-8.808c-0.132 0-0.24-0.111-0.24-0.246v-12.298c0-0.135 0.108-0.246 0.24-0.246h8.808c0.132 0 0.241 0.111 0.241 0.246v12.298z"></path>
</svg>
